<?xml version="1.0" encoding="utf-8"?>
<!-- Generator: Adobe Illustrator 19.0.0, SVG Export Plug-In . SVG Version: 6.00 Build 0)  -->
<svg version="1.1" id="Layer_1" xmlns="http://www.w3.org/2000/svg" xmlns:xlink="http://www.w3.org/1999/xlink" x="0px" y="0px"
	 viewBox="0 0 612 792" style="enable-background:new 0 0 612 792;" xml:space="preserve">
<style type="text/css">
	.st0{fill:#7A7A7A;}
</style>
<g>
	<path class="st0" d="M370.7,378.5l4.5-69.1H392v-72h-78.7V207h-90.6v30.4H144v72h16.8l16,244h112.5c18.9,19.7,45.4,32,74.8,32
		c57.1,0,103.5-46.4,103.5-103.5C467.5,427,424.7,382,370.7,378.5L370.7,378.5z M246.7,231h42.6v6.4h-42.6V231z M168,261.4h200v24
		H168V261.4z M199.2,529.4l-14.4-220h166.4l-4.6,70.4c-48.8,8.3-86.1,50.9-86.1,102.1c0,17.1,4.2,33.3,11.6,47.5L199.2,529.4
		L199.2,529.4z M364,561.4c-43.9,0-79.5-35.7-79.5-79.5c0-43.9,35.7-79.5,79.5-79.5s79.5,35.7,79.5,79.5
		C443.5,525.7,407.9,561.4,364,561.4L364,561.4z M364,561.4"/>
	<path class="st0" d="M390.4,438.5L364,464.9l-26.4-26.4l-17,17l26.4,26.4l-26.4,26.4l17,17l26.4-26.4l26.4,26.4l17-17L381,481.9
		l26.4-26.4L390.4,438.5z M390.4,438.5"/>
</g>
</svg>
